<?xml version="1.0" encoding="UTF-8"?><svg xmlns="http://www.w3.org/2000/svg" xmlns:xlink="http://www.w3.org/1999/xlink" fill-opacity="1" color-rendering="auto" color-interpolation="auto" text-rendering="auto" stroke="black" stroke-linecap="square" width="430" stroke-miterlimit="10" shape-rendering="auto" stroke-opacity="1" fill="black" stroke-dasharray="none" font-weight="normal" stroke-width="1" height="420" font-family="'Dialog'" font-style="normal" stroke-linejoin="miter" font-size="12" stroke-dashoffset="0" image-rendering="auto">
  <!--Generated by ySVG-->
  <defs id="genericDefs"/>
  <g>
    <defs id="defs1">
      <clipPath clipPathUnits="userSpaceOnUse" id="clipPath1">
        <path d="M0 0 L430 0 L430 420 L0 420 L0 0 Z"/>
      </clipPath>
    </defs>
    <g id="y.node.0">
      <g fill="white" transform="matrix(0.9545,0,0,0.9545,9.5455,9.5455)" stroke="white">
        <rect width="30" x="343.625" height="30" y="320" stroke="none"/>
      </g>
      <g id="bla">
        <g font-family="sans-serif" transform="matrix(0.9545,0,0,0.9545,9.5455,9.5455)">
          <text xml:space="preserve" x="355.125" y="339.7139" stroke="none">4</text>
        </g>
      </g>
      <g stroke-miterlimit="1.45" transform="matrix(0.9545,0,0,0.9545,9.5455,9.5455)" stroke-linecap="butt">
        <rect fill="none" width="30" x="343.625" height="30" y="320"/>
      </g>
    </g>
    <g id="y.node.1">
      <g fill="white" transform="matrix(0.9545,0,0,0.9545,9.5455,9.5455)" stroke="white">
        <rect width="30" x="200" height="30" y="0" stroke="none"/>
      </g>
      <g id="bla">
        <g font-family="sans-serif" transform="matrix(0.9545,0,0,0.9545,9.5455,9.5455)">
          <text xml:space="preserve" x="211.5" y="19.7139" stroke="none">1</text>
        </g>
      </g>
      <g stroke-miterlimit="1.45" transform="matrix(0.9545,0,0,0.9545,9.5455,9.5455)" stroke-linecap="butt">
        <rect fill="none" width="30" x="200" height="30" y="0"/>
      </g>
    </g>
    <g id="y.node.2">
      <g fill="white" transform="matrix(0.9545,0,0,0.9545,9.5455,9.5455)" stroke="white">
        <rect width="30" x="150" height="30" y="0" stroke="none"/>
      </g>
      <g id="bla">
        <g font-family="sans-serif" transform="matrix(0.9545,0,0,0.9545,9.5455,9.5455)">
          <text xml:space="preserve" x="159.5" y="19.7139" stroke="none">-2</text>
        </g>
      </g>
      <g stroke-miterlimit="1.45" transform="matrix(0.9545,0,0,0.9545,9.5455,9.5455)" stroke-linecap="butt">
        <rect fill="none" width="30" x="150" height="30" y="0"/>
      </g>
    </g>
    <g id="y.node.3">
      <g fill="white" transform="matrix(0.9545,0,0,0.9545,9.5455,9.5455)" stroke="white">
        <rect width="30" x="50" height="30" y="0" stroke="none"/>
      </g>
      <g id="bla">
        <g font-family="sans-serif" transform="matrix(0.9545,0,0,0.9545,9.5455,9.5455)">
          <text xml:space="preserve" x="59.5" y="19.7139" stroke="none">-3</text>
        </g>
      </g>
      <g stroke-miterlimit="1.45" transform="matrix(0.9545,0,0,0.9545,9.5455,9.5455)" stroke-linecap="butt">
        <rect fill="none" width="30" x="50" height="30" y="0"/>
      </g>
    </g>
    <g id="y.node.4">
      <g fill="white" transform="matrix(0.9545,0,0,0.9545,9.5455,9.5455)" stroke="white">
        <rect width="30" x="300" height="30" y="0" stroke="none"/>
      </g>
      <g id="bla">
        <g font-family="sans-serif" transform="matrix(0.9545,0,0,0.9545,9.5455,9.5455)">
          <text xml:space="preserve" x="311.5" y="19.7139" stroke="none">5</text>
        </g>
      </g>
      <g stroke-miterlimit="1.45" transform="matrix(0.9545,0,0,0.9545,9.5455,9.5455)" stroke-linecap="butt">
        <rect fill="none" width="30" x="300" height="30" y="0"/>
      </g>
    </g>
    <g id="y.node.5">
      <g fill="white" transform="matrix(0.9545,0,0,0.9545,9.5455,9.5455)" stroke="white">
        <rect width="30" x="250" height="30" y="0" stroke="none"/>
      </g>
      <g id="bla">
        <g font-family="sans-serif" transform="matrix(0.9545,0,0,0.9545,9.5455,9.5455)">
          <text xml:space="preserve" x="259.5" y="19.7139" stroke="none">-6</text>
        </g>
      </g>
      <g stroke-miterlimit="1.45" transform="matrix(0.9545,0,0,0.9545,9.5455,9.5455)" stroke-linecap="butt">
        <rect fill="none" width="30" x="250" height="30" y="0"/>
      </g>
    </g>
    <g id="y.node.6">
      <g fill="white" transform="matrix(0.9545,0,0,0.9545,9.5455,9.5455)" stroke="white">
        <rect width="30" x="188.1576" height="30" y="100" stroke="none"/>
      </g>
      <g id="bla">
        <g font-family="sans-serif" transform="matrix(0.9545,0,0,0.9545,9.5455,9.5455)">
          <text xml:space="preserve" x="199.6576" y="119.7139" stroke="none">A</text>
        </g>
      </g>
      <g stroke-miterlimit="1.45" transform="matrix(0.9545,0,0,0.9545,9.5455,9.5455)" stroke-linecap="butt">
        <rect fill="none" width="30" x="188.1576" height="30" y="100"/>
      </g>
    </g>
    <g id="y.node.7">
      <g fill="white" transform="matrix(0.9545,0,0,0.9545,9.5455,9.5455)" stroke="white">
        <rect width="30" x="395.6739" height="30" y="170" stroke="none"/>
      </g>
      <g id="bla">
        <g font-family="sans-serif" transform="matrix(0.9545,0,0,0.9545,9.5455,9.5455)">
          <text xml:space="preserve" x="405.1739" y="189.7139" stroke="none">-1</text>
        </g>
      </g>
      <g stroke-miterlimit="1.45" transform="matrix(0.9545,0,0,0.9545,9.5455,9.5455)" stroke-linecap="butt">
        <rect fill="none" width="30" x="395.6739" height="30" y="170"/>
      </g>
    </g>
    <g id="y.node.8">
      <g fill="white" transform="matrix(0.9545,0,0,0.9545,9.5455,9.5455)" stroke="white">
        <rect width="30" x="400" height="30" y="0" stroke="none"/>
      </g>
      <g id="bla">
        <g font-family="sans-serif" transform="matrix(0.9545,0,0,0.9545,9.5455,9.5455)">
          <text xml:space="preserve" x="409.5" y="19.7139" stroke="none">-5</text>
        </g>
      </g>
      <g stroke-miterlimit="1.45" transform="matrix(0.9545,0,0,0.9545,9.5455,9.5455)" stroke-linecap="butt">
        <rect fill="none" width="30" x="400" height="30" y="0"/>
      </g>
    </g>
    <g id="y.node.9">
      <g fill="white" transform="matrix(0.9545,0,0,0.9545,9.5455,9.5455)" stroke="white">
        <rect width="30" x="350" height="30" y="0" stroke="none"/>
      </g>
      <g id="bla">
        <g font-family="sans-serif" transform="matrix(0.9545,0,0,0.9545,9.5455,9.5455)">
          <text xml:space="preserve" x="361.5" y="19.7139" stroke="none">6</text>
        </g>
      </g>
      <g stroke-miterlimit="1.45" transform="matrix(0.9545,0,0,0.9545,9.5455,9.5455)" stroke-linecap="butt">
        <rect fill="none" width="30" x="350" height="30" y="0"/>
      </g>
    </g>
    <g id="y.node.10">
      <g fill="white" transform="matrix(0.9545,0,0,0.9545,9.5455,9.5455)" stroke="white">
        <rect width="30" x="375" height="30" y="100" stroke="none"/>
      </g>
      <g id="bla">
        <g font-family="sans-serif" transform="matrix(0.9545,0,0,0.9545,9.5455,9.5455)">
          <text xml:space="preserve" x="386.5" y="119.7139" stroke="none">A</text>
        </g>
      </g>
      <g stroke-miterlimit="1.45" transform="matrix(0.9545,0,0,0.9545,9.5455,9.5455)" stroke-linecap="butt">
        <rect fill="none" width="30" x="375" height="30" y="100"/>
      </g>
    </g>
    <g id="y.node.11">
      <g fill="white" transform="matrix(0.9545,0,0,0.9545,9.5455,9.5455)" stroke="white">
        <rect width="30" x="282.5" height="30" y="100" stroke="none"/>
      </g>
      <g id="bla">
        <g font-family="sans-serif" transform="matrix(0.9545,0,0,0.9545,9.5455,9.5455)">
          <text xml:space="preserve" x="294" y="119.7139" stroke="none">A</text>
        </g>
      </g>
      <g stroke-miterlimit="1.45" transform="matrix(0.9545,0,0,0.9545,9.5455,9.5455)" stroke-linecap="butt">
        <rect fill="none" width="30" x="282.5" height="30" y="100"/>
      </g>
    </g>
    <g id="y.node.12">
      <g fill="white" transform="matrix(0.9545,0,0,0.9545,9.5455,9.5455)" stroke="white">
        <ellipse rx="16.5" ry="15" cx="359.1739" cy="185" stroke="none"/>
      </g>
      <g id="bla">
        <g font-family="sans-serif" transform="matrix(0.9545,0,0,0.9545,9.5455,9.5455)">
          <text xml:space="preserve" x="349.6739" y="189.7139" stroke="none">O 6</text>
        </g>
      </g>
      <g stroke-miterlimit="1.45" transform="matrix(0.9545,0,0,0.9545,9.5455,9.5455)" stroke-linecap="butt">
        <ellipse rx="16.5" fill="none" ry="15" cx="359.1739" cy="185"/>
      </g>
    </g>
    <g id="y.node.13">
      <g fill="white" transform="matrix(0.9545,0,0,0.9545,9.5455,9.5455)" stroke="white">
        <rect width="30" x="100" height="30" y="0" stroke="none"/>
      </g>
      <g id="bla">
        <g font-family="sans-serif" transform="matrix(0.9545,0,0,0.9545,9.5455,9.5455)">
          <text xml:space="preserve" x="111.5" y="19.7139" stroke="none">3</text>
        </g>
      </g>
      <g stroke-miterlimit="1.45" transform="matrix(0.9545,0,0,0.9545,9.5455,9.5455)" stroke-linecap="butt">
        <rect fill="none" width="30" x="100" height="30" y="0"/>
      </g>
    </g>
    <g id="y.node.14">
      <g fill="white" transform="matrix(0.9545,0,0,0.9545,9.5455,9.5455)" stroke="white">
        <rect width="30" x="104.9076" height="30" y="100" stroke="none"/>
      </g>
      <g id="bla">
        <g font-family="sans-serif" transform="matrix(0.9545,0,0,0.9545,9.5455,9.5455)">
          <text xml:space="preserve" x="116.4076" y="119.7139" stroke="none">A</text>
        </g>
      </g>
      <g stroke-miterlimit="1.45" transform="matrix(0.9545,0,0,0.9545,9.5455,9.5455)" stroke-linecap="butt">
        <rect fill="none" width="30" x="104.9076" height="30" y="100"/>
      </g>
    </g>
    <g id="y.node.15">
      <g fill="white" transform="matrix(0.9545,0,0,0.9545,9.5455,9.5455)" stroke="white">
        <rect width="30" x="0" height="30" y="0" stroke="none"/>
      </g>
      <g id="bla">
        <g font-family="sans-serif" transform="matrix(0.9545,0,0,0.9545,9.5455,9.5455)">
          <text xml:space="preserve" x="11.5" y="19.7139" stroke="none">2</text>
        </g>
      </g>
      <g stroke-miterlimit="1.45" transform="matrix(0.9545,0,0,0.9545,9.5455,9.5455)" stroke-linecap="butt">
        <rect fill="none" width="30" x="0" height="30" y="0"/>
      </g>
    </g>
    <g id="y.node.16">
      <g fill="white" transform="matrix(0.9545,0,0,0.9545,9.5455,9.5455)" stroke="white">
        <rect width="30" x="21.25" height="30" y="100" stroke="none"/>
      </g>
      <g id="bla">
        <g font-family="sans-serif" transform="matrix(0.9545,0,0,0.9545,9.5455,9.5455)">
          <text xml:space="preserve" x="32.75" y="119.7139" stroke="none">A</text>
        </g>
      </g>
      <g stroke-miterlimit="1.45" transform="matrix(0.9545,0,0,0.9545,9.5455,9.5455)" stroke-linecap="butt">
        <rect fill="none" width="30" x="21.25" height="30" y="100"/>
      </g>
    </g>
    <g id="y.node.17">
      <g fill="white" transform="matrix(0.9545,0,0,0.9545,9.5455,9.5455)" stroke="white">
        <ellipse rx="16.5" ry="15" cx="82.6739" cy="185" stroke="none"/>
      </g>
      <g id="bla">
        <g font-family="sans-serif" transform="matrix(0.9545,0,0,0.9545,9.5455,9.5455)">
          <text xml:space="preserve" x="73.1739" y="189.7139" stroke="none">O 3</text>
        </g>
      </g>
      <g stroke-miterlimit="1.45" transform="matrix(0.9545,0,0,0.9545,9.5455,9.5455)" stroke-linecap="butt">
        <ellipse rx="16.5" fill="none" ry="15" cx="82.6739" cy="185"/>
      </g>
    </g>
    <g id="y.node.18">
      <g fill="white" transform="matrix(0.9545,0,0,0.9545,9.5455,9.5455)" stroke="white">
        <rect width="30" x="350.163" height="30" y="250" stroke="none"/>
      </g>
      <g id="bla">
        <g font-family="sans-serif" transform="matrix(0.9545,0,0,0.9545,9.5455,9.5455)">
          <text xml:space="preserve" x="361.6631" y="269.7139" stroke="none">A</text>
        </g>
      </g>
      <g stroke-miterlimit="1.45" transform="matrix(0.9545,0,0,0.9545,9.5455,9.5455)" stroke-linecap="butt">
        <rect fill="none" width="30" x="350.163" height="30" y="250"/>
      </g>
    </g>
    <g id="y.node.19">
      <g fill="white" transform="matrix(0.9545,0,0,0.9545,9.5455,9.5455)" stroke="white">
        <ellipse rx="16.5" ry="15" cx="307.125" cy="335" stroke="none"/>
      </g>
      <g id="bla">
        <g font-family="sans-serif" transform="matrix(0.9545,0,0,0.9545,9.5455,9.5455)">
          <text xml:space="preserve" x="297.625" y="339.7139" stroke="none">O 1</text>
        </g>
      </g>
      <g stroke-miterlimit="1.45" transform="matrix(0.9545,0,0,0.9545,9.5455,9.5455)" stroke-linecap="butt">
        <ellipse rx="16.5" fill="none" ry="15" cx="307.125" cy="335"/>
      </g>
    </g>
    <g id="y.node.20">
      <g fill="white" transform="matrix(0.9545,0,0,0.9545,9.5455,9.5455)" stroke="white">
        <rect width="30" x="317.875" height="30" y="390" stroke="none"/>
      </g>
      <g id="bla">
        <g font-family="sans-serif" transform="matrix(0.9545,0,0,0.9545,9.5455,9.5455)">
          <text xml:space="preserve" x="329.375" y="409.7139" stroke="none">A</text>
        </g>
      </g>
      <g stroke-miterlimit="1.45" transform="matrix(0.9545,0,0,0.9545,9.5455,9.5455)" stroke-linecap="butt">
        <rect fill="none" width="30" x="317.875" height="30" y="390"/>
      </g>
    </g>
    <g id="y.edge.0">
      <g stroke-miterlimit="1.45" transform="matrix(0.9545,0,0,0.9545,9.5455,9.5455)" stroke-linecap="butt">
        <path fill="none" d="M209.1576 99.9609 L209.1576 60 L257.5 60 L257.5 38"/>
      </g>
      <g stroke-miterlimit="1.45" transform="matrix(0.9545,0,0,0.9545,9.5455,9.5455)" stroke-linecap="butt">
        <path d="M257.5 30 L252.5 42 L257.5 39 L262.5 42 Z" stroke="none"/>
      </g>
    </g>
    <g id="y.edge.1">
      <g stroke-miterlimit="1.45" transform="matrix(0.9545,0,0,0.9545,9.5455,9.5455)" stroke-linecap="butt">
        <path fill="none" d="M215.1576 99.9707 L215.1576 70 L307.5 70 L307.5 38"/>
        <path d="M307.5 30 L302.5 42 L307.5 39 L312.5 42 Z" stroke="none"/>
      </g>
    </g>
    <g id="y.edge.2">
      <g stroke-miterlimit="1.45" transform="matrix(0.9545,0,0,0.9545,9.5455,9.5455)" stroke-linecap="butt">
        <path fill="none" d="M191.1576 99.9609 L191.1576 60 L72.5 60 L72.5 38"/>
        <path d="M72.5 30 L67.5 42 L72.5 39 L77.5 42 Z" stroke="none"/>
      </g>
    </g>
    <g id="y.edge.3">
      <g stroke-miterlimit="1.45" transform="matrix(0.9545,0,0,0.9545,9.5455,9.5455)" stroke-linecap="butt">
        <path fill="none" d="M197.1576 99.9512 L197.1576 50 L172.5 50 L172.5 38"/>
        <path d="M172.5 30 L167.5 42 L172.5 39 L177.5 42 Z" stroke="none"/>
      </g>
    </g>
    <g id="y.edge.4">
      <g stroke-miterlimit="1.45" transform="matrix(0.9545,0,0,0.9545,9.5455,9.5455)" stroke-linecap="butt">
        <path fill="none" d="M203.1576 99.9512 L203.1576 50 L215 50 L215 38"/>
        <path d="M215 30 L210 42 L215 39 L220 42 Z" stroke="none"/>
      </g>
    </g>
    <g id="y.edge.5">
      <g stroke-miterlimit="1.45" transform="matrix(0.9545,0,0,0.9545,9.5455,9.5455)" stroke-linecap="butt">
        <path fill="none" d="M382.5 99.9512 L382.5 50 L365 50 L365 38"/>
        <path d="M365 30 L360 42 L365 39 L370 42 Z" stroke="none"/>
      </g>
    </g>
    <g id="y.edge.6">
      <g stroke-miterlimit="1.45" transform="matrix(0.9545,0,0,0.9545,9.5455,9.5455)" stroke-linecap="butt">
        <path fill="none" d="M397.5 99.9512 L397.5 50 L415 50 L415 38"/>
        <path d="M415 30 L410 42 L415 39 L420 42 Z" stroke="none"/>
      </g>
    </g>
    <g id="y.edge.7">
      <g stroke-miterlimit="1.45" transform="matrix(0.9545,0,0,0.9545,9.5455,9.5455)" stroke-linecap="butt">
        <path fill="none" d="M290 99.9512 L290 50 L272.5 50 L272.5 38"/>
        <path d="M272.5 30 L267.5 42 L272.5 39 L277.5 42 Z" stroke="none"/>
      </g>
    </g>
    <g id="y.edge.8">
      <g stroke-miterlimit="1.45" transform="matrix(0.9545,0,0,0.9545,9.5455,9.5455)" stroke-linecap="butt">
        <path fill="none" d="M305 99.9609 L305 80 L322.5 80 L322.5 38"/>
        <path d="M322.5 30 L317.5 42 L322.5 39 L327.5 42 Z" stroke="none"/>
      </g>
    </g>
    <g id="y.edge.9">
      <g stroke-miterlimit="1.45" transform="matrix(0.9545,0,0,0.9545,9.5455,9.5455)" stroke-linecap="butt">
        <path fill="none" d="M350.9239 170 L350.9239 150 L297.5 150 L297.5 138"/>
        <path d="M297.5 130 L292.5 142 L297.5 139 L302.5 142 Z" stroke="none"/>
      </g>
    </g>
    <g id="y.edge.10">
      <g stroke-miterlimit="1.45" transform="matrix(0.9545,0,0,0.9545,9.5455,9.5455)" stroke-linecap="butt">
        <path fill="none" d="M367.4239 170 L367.4239 150 L390 150 L390 138"/>
        <path d="M390 130 L385 142 L390 139 L395 142 Z" stroke="none"/>
      </g>
    </g>
    <g id="y.edge.11">
      <g stroke-miterlimit="1.45" transform="matrix(0.9545,0,0,0.9545,9.5455,9.5455)" stroke-linecap="butt">
        <path fill="none" d="M112.4076 99.9707 L112.4076 70 L115 70 L115 38"/>
        <path d="M115 30 L110 42 L115 39 L120 42 Z" stroke="none"/>
      </g>
    </g>
    <g id="y.edge.12">
      <g stroke-miterlimit="1.45" transform="matrix(0.9545,0,0,0.9545,9.5455,9.5455)" stroke-linecap="butt">
        <path fill="none" d="M127.4076 99.9707 L127.4076 70 L157.5 70 L157.5 38"/>
        <path d="M157.5 30 L152.5 42 L157.5 39 L162.5 42 Z" stroke="none"/>
      </g>
    </g>
    <g id="y.edge.13">
      <g stroke-miterlimit="1.45" transform="matrix(0.9545,0,0,0.9545,9.5455,9.5455)" stroke-linecap="butt">
        <path fill="none" d="M43.75 99.9512 L43.75 50 L57.5 50 L57.5 38"/>
        <path d="M57.5 30 L52.5 42 L57.5 39 L62.5 42 Z" stroke="none"/>
      </g>
    </g>
    <g id="y.edge.14">
      <g stroke-miterlimit="1.45" transform="matrix(0.9545,0,0,0.9545,9.5455,9.5455)" stroke-linecap="butt">
        <path fill="none" d="M28.75 99.9512 L28.75 50 L15 50 L15 38"/>
        <path d="M15 30 L10 42 L15 39 L20 42 Z" stroke="none"/>
      </g>
    </g>
    <g id="y.edge.15">
      <g stroke-miterlimit="1.45" transform="matrix(0.9545,0,0,0.9545,9.5455,9.5455)" stroke-linecap="butt">
        <path fill="none" d="M74.4239 170 L74.4239 150 L36.25 150 L36.25 138"/>
        <path d="M36.25 130 L31.25 142 L36.25 139 L41.25 142 Z" stroke="none"/>
      </g>
    </g>
    <g id="y.edge.16">
      <g stroke-miterlimit="1.45" transform="matrix(0.9545,0,0,0.9545,9.5455,9.5455)" stroke-linecap="butt">
        <path fill="none" d="M90.9239 170 L90.9239 150 L119.9076 150 L119.9076 138"/>
        <path d="M119.9076 130 L114.9076 142 L119.9076 139 L124.9076 142 Z" stroke="none"/>
      </g>
    </g>
    <g id="y.edge.17">
      <g stroke-miterlimit="1.45" transform="matrix(0.9545,0,0,0.9545,9.5455,9.5455)" stroke-linecap="butt">
        <path fill="none" d="M355.1631 249.9609 L355.1631 230 L82.6739 230 L82.6739 208"/>
        <path d="M82.6739 200 L77.6739 212 L82.6739 209 L87.6739 212 Z" stroke="none"/>
      </g>
    </g>
    <g id="y.edge.18">
      <g stroke-miterlimit="1.45" transform="matrix(0.9545,0,0,0.9545,9.5455,9.5455)" stroke-linecap="butt">
        <path fill="none" d="M365.1631 249.9707 L365.1631 220 L359.1739 220 L359.1739 208"/>
        <path d="M359.1739 200 L354.1739 212 L359.1739 209 L364.1739 212 Z" stroke="none"/>
      </g>
    </g>
    <g id="y.edge.19">
      <g stroke-miterlimit="1.45" transform="matrix(0.9545,0,0,0.9545,9.5455,9.5455)" stroke-linecap="butt">
        <path fill="none" d="M375.1631 249.9707 L375.1631 220 L410.6739 220 L410.6739 208"/>
        <path d="M410.6739 200 L405.6739 212 L410.6739 209 L415.6739 212 Z" stroke="none"/>
      </g>
    </g>
    <g id="y.edge.20">
      <g stroke-miterlimit="1.45" transform="matrix(0.9545,0,0,0.9545,9.5455,9.5455)" stroke-linecap="butt">
        <path fill="none" d="M315.375 320 L315.375 300 L365.1631 300 L365.1631 288"/>
        <path d="M365.1631 280 L360.1631 292 L365.1631 289 L370.1631 292 Z" stroke="none"/>
      </g>
    </g>
    <g id="y.edge.21">
      <g stroke-miterlimit="1.45" transform="matrix(0.9545,0,0,0.9545,9.5455,9.5455)" stroke-linecap="butt">
        <path fill="none" d="M298.875 320 L298.875 300 L203.1576 300 L203.1576 138"/>
        <path d="M203.1576 130 L198.1576 142 L203.1576 139 L208.1576 142 Z" stroke="none"/>
      </g>
    </g>
    <g id="y.edge.22">
      <g stroke-miterlimit="1.45" transform="matrix(0.9545,0,0,0.9545,9.5455,9.5455)" stroke-linecap="butt">
        <path fill="none" d="M325.375 389.9609 L325.375 370 L307.125 370 L307.125 358"/>
        <path d="M307.125 350 L302.125 362 L307.125 359 L312.125 362 Z" stroke="none"/>
      </g>
    </g>
    <g id="y.edge.23">
      <g stroke-miterlimit="1.45" transform="matrix(0.9545,0,0,0.9545,9.5455,9.5455)" stroke-linecap="butt">
        <path fill="none" d="M340.375 389.9609 L340.375 370 L358.625 370 L358.625 358"/>
        <path d="M358.625 350 L353.625 362 L358.625 359 L363.625 362 Z" stroke="none"/>
      </g>
    </g>
  </g>
</svg>
